<svg version="1.1" xmlns="http://www.w3.org/2000/svg" viewBox="0 0 1035.277777777778 797.722222222222" width="1035.277777777778" height="797.722222222222">
  <!-- svg-source:excalidraw -->
  
  <defs>
    <style>
      @font-face {
        font-family: "Virgil";
        src: url("https://excalidraw.com/Virgil.woff2");
      }
      @font-face {
        font-family: "Cascadia";
        src: url("https://excalidraw.com/Cascadia.woff2");
      }
    </style>
  </defs>
  <rect x="0" y="0" width="1035.277777777778" height="797.722222222222" fill="#ffffff"></rect><g transform="translate(397.0000000000001 10) rotate(0 4.5 14.5)"><text x="4.5" y="22" font-family="Helvetica, Segoe UI Emoji" font-size="28px" fill="#000000" text-anchor="middle" style="white-space: pre;" direction="ltr">(</text></g><g transform="translate(113.27777777777806 176.22222222222206) rotate(0 9.5 14.5)"><text x="9.5" y="22" font-family="Helvetica, Segoe UI Emoji" font-size="28px" fill="#000000" text-anchor="middle" style="white-space: pre;" direction="ltr">()</text></g><g transform="translate(693.277777777778 176.22222222222206) rotate(0 9.5 14.5)"><text x="9.5" y="22" font-family="Helvetica, Segoe UI Emoji" font-size="28px" fill="#000000" text-anchor="middle" style="white-space: pre;" direction="ltr">((</text></g><g stroke-linecap="round"><g transform="translate(391.6835774790982 41.781303935071975) rotate(0 -126.14002859642238 63.93059300619102)"><path d="M0 0 C-42.05 21.31, -210.23 106.55, -252.28 127.86 M0 0 C-42.05 21.31, -210.23 106.55, -252.28 127.86" stroke="#000000" stroke-width="1" fill="none"></path></g><g transform="translate(391.6835774790982 41.781303935071975) rotate(0 -126.14002859642238 63.93059300619102)"><path d="M-231.77 105.96 C-239.59 114.31, -247.41 122.66, -252.28 127.86 M-231.77 105.96 C-237.32 111.89, -242.87 117.81, -252.28 127.86" stroke="#000000" stroke-width="1" fill="none"></path></g><g transform="translate(391.6835774790982 41.781303935071975) rotate(0 -126.14002859642238 63.93059300619102)"><path d="M-222.5 124.27 C-233.85 125.64, -245.21 127.01, -252.28 127.86 M-222.5 124.27 C-230.55 125.24, -238.61 126.21, -252.28 127.86" stroke="#000000" stroke-width="1" fill="none"></path></g></g><g stroke-linecap="round"><g transform="translate(419.28955165474054 44.799811791427544) rotate(0 131.49411306151876 70.8438190608104)"><path d="M0 0 C43.83 23.61, 219.16 118.07, 262.99 141.69 M0 0 C43.83 23.61, 219.16 118.07, 262.99 141.69" stroke="#000000" stroke-width="1" fill="none"></path></g><g transform="translate(419.28955165474054 44.799811791427544) rotate(0 131.49411306151876 70.8438190608104)"><path d="M233.3 137.35 C242.93 138.76, 252.55 140.16, 262.99 141.69 M233.3 137.35 C240.18 138.35, 247.06 139.36, 262.99 141.69" stroke="#000000" stroke-width="1" fill="none"></path></g><g transform="translate(419.28955165474054 44.799811791427544) rotate(0 131.49411306151876 70.8438190608104)"><path d="M243.04 119.28 C249.51 126.55, 255.97 133.81, 262.99 141.69 M243.04 119.28 C247.66 124.47, 252.28 129.67, 262.99 141.69" stroke="#000000" stroke-width="1" fill="none"></path></g></g><g stroke-linecap="round"><g transform="translate(105.1433299827143 214.04439650464144) rotate(0 -17.09990664725055 36.97780174767928)"><path d="M0 0 C-5.7 12.33, -28.5 61.63, -34.2 73.96 M0 0 C-5.7 12.33, -28.5 61.63, -34.2 73.96" stroke="#000000" stroke-width="1" fill="none"></path></g><g transform="translate(105.1433299827143 214.04439650464144) rotate(0 -17.09990664725055 36.97780174767928)"><path d="M-31.68 44.06 C-32.62 55.17, -33.55 66.27, -34.2 73.96 M-31.68 44.06 C-32.66 55.68, -33.64 67.29, -34.2 73.96" stroke="#000000" stroke-width="1" fill="none"></path></g><g transform="translate(105.1433299827143 214.04439650464144) rotate(0 -17.09990664725055 36.97780174767928)"><path d="M-13.05 52.67 C-20.91 60.58, -28.77 68.49, -34.2 73.96 M-13.05 52.67 C-21.27 60.94, -29.49 69.21, -34.2 73.96" stroke="#000000" stroke-width="1" fill="none"></path></g></g><g stroke-linecap="round"><g transform="translate(129.0217523710803 215.22222222222206) rotate(0 3.0577099356195845 34.888888888889)"><path d="M0 0 C1.02 11.63, 5.1 58.15, 6.12 69.78 M0 0 C1.02 11.63, 5.1 58.15, 6.12 69.78" stroke="#000000" stroke-width="1" fill="none"></path></g><g transform="translate(129.0217523710803 215.22222222222206) rotate(0 3.0577099356195845 34.888888888889)"><path d="M-6.57 42.59 C-2.9 50.45, 0.76 58.3, 6.12 69.78 M-6.57 42.59 C-1.59 53.27, 3.4 63.95, 6.12 69.78" stroke="#000000" stroke-width="1" fill="none"></path></g><g transform="translate(129.0217523710803 215.22222222222206) rotate(0 3.0577099356195845 34.888888888889)"><path d="M13.88 40.8 C11.63 49.17, 9.39 57.55, 6.12 69.78 M13.88 40.8 C10.83 52.18, 7.78 63.56, 6.12 69.78" stroke="#000000" stroke-width="1" fill="none"></path></g></g><g transform="translate(50.93478260869574 294.5) rotate(0 14 14.5)"><text x="14" y="22" font-family="Helvetica, Segoe UI Emoji" font-size="28px" fill="#000000" text-anchor="middle" style="white-space: pre;" direction="ltr">())</text></g><g stroke-linecap="round"><g transform="translate(75.71739130434776 332.97826086956525) rotate(0 7.173913043478251 8.260869565217376)"><path d="M0 0 C2.39 2.75, 11.96 13.77, 14.35 16.52 M0 0 C2.39 2.75, 11.96 13.77, 14.35 16.52" stroke="#c92a2a" stroke-width="1" fill="none"></path></g></g><g stroke-linecap="round"><g transform="translate(74.8478260869565 349.5) rotate(0 7.608695652173878 -8.695652173913004)"><path d="M0 0 C2.54 -2.9, 12.68 -14.49, 15.22 -17.39 M0 0 C2.54 -2.9, 12.68 -14.49, 15.22 -17.39" stroke="#c92a2a" stroke-width="1" fill="none"></path></g></g><g transform="translate(121.5 296.5) rotate(0 14 14.5)"><text x="14" y="22" font-family="Helvetica, Segoe UI Emoji" font-size="28px" fill="#000000" text-anchor="middle" style="white-space: pre;" direction="ltr">()(</text></g><g transform="translate(100 420.5) rotate(0 18.5 14.5)"><text x="18.5" y="22" font-family="Helvetica, Segoe UI Emoji" font-size="28px" fill="#000000" text-anchor="middle" style="white-space: pre;" direction="ltr">()()</text></g><g transform="translate(188 420) rotate(0 18.5 14.5)"><text x="18.5" y="22" font-family="Helvetica, Segoe UI Emoji" font-size="28px" fill="#000000" text-anchor="middle" style="white-space: pre;" direction="ltr">()((</text></g><g transform="translate(10 551) rotate(0 23.5 14.5)"><text x="23.5" y="22" font-family="Helvetica, Segoe UI Emoji" font-size="28px" fill="#000000" text-anchor="middle" style="white-space: pre;" direction="ltr">()())</text></g><g transform="translate(82 550) rotate(0 23.5 14.5)"><text x="23.5" y="22" font-family="Helvetica, Segoe UI Emoji" font-size="28px" fill="#000000" text-anchor="middle" style="white-space: pre;" direction="ltr">()()(</text></g><g transform="translate(264 553) rotate(0 23.5 14.5)"><text x="23.5" y="22" font-family="Helvetica, Segoe UI Emoji" font-size="28px" fill="#000000" text-anchor="middle" style="white-space: pre;" direction="ltr">()(()</text></g><g transform="translate(342.9999999999999 550) rotate(0 23.5 14.5)"><text x="23.5" y="22" font-family="Helvetica, Segoe UI Emoji" font-size="28px" fill="#000000" text-anchor="middle" style="white-space: pre;" direction="ltr">()(((</text></g><g stroke-linecap="round"><g transform="translate(23.76086956521749 600.1739130434783) rotate(0 7.173913043478251 8.260869565217376)"><path d="M0 0 C2.39 2.75, 11.96 13.77, 14.35 16.52 M0 0 C2.39 2.75, 11.96 13.77, 14.35 16.52" stroke="#c92a2a" stroke-width="1" fill="none"></path></g></g><g stroke-linecap="round"><g transform="translate(22.891304347826008 616.695652173913) rotate(0 7.608695652173878 -8.695652173913004)"><path d="M0 0 C2.54 -2.9, 12.68 -14.49, 15.22 -17.39 M0 0 C2.54 -2.9, 12.68 -14.49, 15.22 -17.39" stroke="#c92a2a" stroke-width="1" fill="none"></path></g></g><g stroke-linecap="round"><g transform="translate(358.7608695652174 594.1739130434783) rotate(0 7.173913043478251 8.260869565217376)"><path d="M0 0 C2.39 2.75, 11.96 13.77, 14.35 16.52 M0 0 C2.39 2.75, 11.96 13.77, 14.35 16.52" stroke="#c92a2a" stroke-width="1" fill="none"></path></g></g><g stroke-linecap="round"><g transform="translate(357.8913043478259 610.695652173913) rotate(0 7.608695652173878 -8.695652173913004)"><path d="M0 0 C2.54 -2.9, 12.68 -14.49, 15.22 -17.39 M0 0 C2.54 -2.9, 12.68 -14.49, 15.22 -17.39" stroke="#c92a2a" stroke-width="1" fill="none"></path></g></g><g transform="translate(42.5 714) rotate(0 28 14.5)"><text x="28" y="22" font-family="Helvetica, Segoe UI Emoji" font-size="28px" fill="#000000" text-anchor="middle" style="white-space: pre;" direction="ltr">()()()</text></g><g transform="translate(127.5 713) rotate(0 28 14.5)"><text x="28" y="22" font-family="Helvetica, Segoe UI Emoji" font-size="28px" fill="#000000" text-anchor="middle" style="white-space: pre;" direction="ltr">()()((</text></g><g transform="translate(237.4999999999999 714) rotate(0 28 14.5)"><text x="28" y="22" font-family="Helvetica, Segoe UI Emoji" font-size="28px" fill="#000000" text-anchor="middle" style="white-space: pre;" direction="ltr">()(())</text></g><g transform="translate(321.4999999999999 713) rotate(0 28 14.5)"><text x="28" y="22" font-family="Helvetica, Segoe UI Emoji" font-size="28px" fill="#000000" text-anchor="middle" style="white-space: pre;" direction="ltr">()(()(</text></g><g stroke-linecap="round"><g transform="translate(338.7608695652174 763.1739130434783) rotate(0 7.173913043478251 8.260869565217376)"><path d="M0 0 C2.39 2.75, 11.96 13.77, 14.35 16.52 M0 0 C2.39 2.75, 11.96 13.77, 14.35 16.52" stroke="#c92a2a" stroke-width="1" fill="none"></path></g></g><g stroke-linecap="round"><g transform="translate(337.8913043478259 779.695652173913) rotate(0 7.608695652173878 -8.695652173913004)"><path d="M0 0 C2.54 -2.9, 12.68 -14.49, 15.22 -17.39 M0 0 C2.54 -2.9, 12.68 -14.49, 15.22 -17.39" stroke="#c92a2a" stroke-width="1" fill="none"></path></g></g><g stroke-linecap="round"><g transform="translate(131.5 335) rotate(0 -6 40.5)"><path d="M0 0 C-2 13.5, -10 67.5, -12 81 M0 0 C-2 13.5, -10 67.5, -12 81" stroke="#000000" stroke-width="1" fill="none"></path></g><g transform="translate(131.5 335) rotate(0 -6 40.5)"><path d="M-18.02 51.61 C-16.7 58.07, -15.37 64.53, -12 81 M-18.02 51.61 C-16.2 60.48, -14.39 69.35, -12 81" stroke="#000000" stroke-width="1" fill="none"></path></g><g transform="translate(131.5 335) rotate(0 -6 40.5)"><path d="M2.28 54.62 C-0.86 60.41, -4 66.21, -12 81 M2.28 54.62 C-2.03 62.58, -6.34 70.54, -12 81" stroke="#000000" stroke-width="1" fill="none"></path></g></g><g stroke-linecap="round"><g transform="translate(145.5 334) rotate(0 20 40.5)"><path d="M0 0 C6.67 13.5, 33.33 67.5, 40 81 M0 0 C6.67 13.5, 33.33 67.5, 40 81" stroke="#000000" stroke-width="1" fill="none"></path></g><g transform="translate(145.5 334) rotate(0 20 40.5)"><path d="M18.32 60.27 C25.76 67.39, 33.21 74.51, 40 81 M18.32 60.27 C26.92 68.5, 35.53 76.72, 40 81" stroke="#000000" stroke-width="1" fill="none"></path></g><g transform="translate(145.5 334) rotate(0 20 40.5)"><path d="M36.72 51.18 C37.84 61.42, 38.97 71.66, 40 81 M36.72 51.18 C38.02 63.02, 39.32 74.85, 40 81" stroke="#000000" stroke-width="1" fill="none"></path></g></g><g stroke-linecap="round"><g transform="translate(111.5 460) rotate(0 -29.5 42)"><path d="M0 0 C-9.83 14, -49.17 70, -59 84 M0 0 C-9.83 14, -49.17 70, -59 84" stroke="#000000" stroke-width="1" fill="none"></path></g><g transform="translate(111.5 460) rotate(0 -29.5 42)"><path d="M-51.19 55.03 C-53.34 63.01, -55.5 71, -59 84 M-51.19 55.03 C-54.23 66.31, -57.27 77.59, -59 84" stroke="#000000" stroke-width="1" fill="none"></path></g><g transform="translate(111.5 460) rotate(0 -29.5 42)"><path d="M-34.4 66.83 C-41.18 71.56, -47.96 76.29, -59 84 M-34.4 66.83 C-43.98 73.51, -53.55 80.2, -59 84" stroke="#000000" stroke-width="1" fill="none"></path></g></g><g stroke-linecap="round"><g transform="translate(122.5 461) rotate(0 -4.5 42)"><path d="M0 0 C-1.5 14, -7.5 70, -9 84 M0 0 C-1.5 14, -7.5 70, -9 84" stroke="#000000" stroke-width="1" fill="none"></path></g><g transform="translate(122.5 461) rotate(0 -4.5 42)"><path d="M-16.2 54.88 C-13.44 66.03, -10.68 77.18, -9 84 M-16.2 54.88 C-14.74 60.8, -13.27 66.72, -9 84" stroke="#000000" stroke-width="1" fill="none"></path></g><g transform="translate(122.5 461) rotate(0 -4.5 42)"><path d="M4.21 57.06 C-0.85 67.38, -5.91 77.7, -9 84 M4.21 57.06 C1.52 62.54, -1.16 68.01, -9 84" stroke="#000000" stroke-width="1" fill="none"></path></g></g><g stroke-linecap="round"><g transform="translate(107.5 589) rotate(0 -11 58.5)"><path d="M0 0 C-3.67 19.5, -18.33 97.5, -22 117 M0 0 C-3.67 19.5, -18.33 97.5, -22 117" stroke="#000000" stroke-width="1" fill="none"></path></g><g transform="translate(107.5 589) rotate(0 -11 58.5)"><path d="M-26.87 87.4 C-25.1 98.17, -23.33 108.95, -22 117 M-26.87 87.4 C-25.05 98.5, -23.22 109.61, -22 117" stroke="#000000" stroke-width="1" fill="none"></path></g><g transform="translate(107.5 589) rotate(0 -11 58.5)"><path d="M-6.71 91.19 C-12.27 100.58, -17.84 109.98, -22 117 M-6.71 91.19 C-12.44 100.87, -18.18 110.56, -22 117" stroke="#000000" stroke-width="1" fill="none"></path></g></g><g stroke-linecap="round"><g transform="translate(120.5 590) rotate(0 13 58.5)"><path d="M0 0 C4.33 19.5, 21.67 97.5, 26 117 M0 0 C4.33 19.5, 21.67 97.5, 26 117" stroke="#000000" stroke-width="1" fill="none"></path></g><g transform="translate(120.5 590) rotate(0 13 58.5)"><path d="M9.87 91.71 C16.2 101.63, 22.53 111.55, 26 117 M9.87 91.71 C13.63 97.61, 17.39 103.51, 26 117" stroke="#000000" stroke-width="1" fill="none"></path></g><g transform="translate(120.5 590) rotate(0 13 58.5)"><path d="M29.9 87.25 C28.37 98.92, 26.84 110.59, 26 117 M29.9 87.25 C28.99 94.19, 28.08 101.13, 26 117" stroke="#000000" stroke-width="1" fill="none"></path></g></g><g stroke-linecap="round"><g transform="translate(149.7608695652176 755.1739130434783) rotate(0 7.173913043478251 8.260869565217376)"><path d="M0 0 C2.39 2.75, 11.96 13.77, 14.35 16.52 M0 0 C2.39 2.75, 11.96 13.77, 14.35 16.52" stroke="#c92a2a" stroke-width="1" fill="none"></path></g></g><g stroke-linecap="round"><g transform="translate(148.89130434782612 771.695652173913) rotate(0 7.608695652173878 -8.695652173913004)"><path d="M0 0 C2.54 -2.9, 12.68 -14.49, 15.22 -17.39 M0 0 C2.54 -2.9, 12.68 -14.49, 15.22 -17.39" stroke="#c92a2a" stroke-width="1" fill="none"></path></g></g><g stroke-linecap="round"><g transform="translate(58.013513513513544 772.3783783783786) rotate(0 2.743243243243228 2.8108108108107217)"><path d="M0 0 C0.91 0.94, 4.57 4.68, 5.49 5.62 M0 0 C0.91 0.94, 4.57 4.68, 5.49 5.62" stroke="#2b8a3e" stroke-width="1" fill="none"></path></g></g><g stroke-linecap="round"><g transform="translate(64.00000000000023 778.8558558558559) rotate(0 11 -10.5)"><path d="M0 0 C3.67 -3.5, 18.33 -17.5, 22 -21 M0 0 C3.67 -3.5, 18.33 -17.5, 22 -21" stroke="#2b8a3e" stroke-width="1" fill="none"></path></g></g><g stroke-linecap="round"><g transform="translate(255.12837837837878 772.6756756756758) rotate(0 2.743243243243228 2.8108108108107217)"><path d="M0 0 C0.91 0.94, 4.57 4.68, 5.49 5.62 M0 0 C0.91 0.94, 4.57 4.68, 5.49 5.62" stroke="#2b8a3e" stroke-width="1" fill="none"></path></g></g><g stroke-linecap="round"><g transform="translate(261.11486486486547 779.1531531531532) rotate(0 11 -10.5)"><path d="M0 0 C3.67 -3.5, 18.33 -17.5, 22 -21 M0 0 C3.67 -3.5, 18.33 -17.5, 22 -21" stroke="#2b8a3e" stroke-width="1" fill="none"></path></g></g><g stroke-linecap="round"><g transform="translate(287.1216216216221 594.6531531531533) rotate(0 -8.5 55)"><path d="M0 0 C-2.83 18.33, -14.17 91.67, -17 110 M0 0 C-2.83 18.33, -14.17 91.67, -17 110" stroke="#000000" stroke-width="1" fill="none"></path></g><g transform="translate(287.1216216216221 594.6531531531533) rotate(0 -8.5 55)"><path d="M-22.83 80.57 C-20.74 91.14, -18.64 101.72, -17 110 M-22.83 80.57 C-21.66 86.48, -20.49 92.39, -17 110" stroke="#000000" stroke-width="1" fill="none"></path></g><g transform="translate(287.1216216216221 594.6531531531533) rotate(0 -8.5 55)"><path d="M-2.55 83.71 C-7.74 93.15, -12.93 102.6, -17 110 M-2.55 83.71 C-5.45 88.99, -8.36 94.27, -17 110" stroke="#000000" stroke-width="1" fill="none"></path></g></g><g stroke-linecap="round"><g transform="translate(298.1216216216221 591.6531531531533) rotate(0 20 57)"><path d="M0 0 C6.67 19, 33.33 95, 40 114 M0 0 C6.67 19, 33.33 95, 40 114" stroke="#000000" stroke-width="1" fill="none"></path></g><g transform="translate(298.1216216216221 591.6531531531533) rotate(0 20 57)"><path d="M20.98 90.8 C25.75 96.62, 30.52 102.43, 40 114 M20.98 90.8 C25.27 96.02, 29.55 101.25, 40 114" stroke="#000000" stroke-width="1" fill="none"></path></g><g transform="translate(298.1216216216221 591.6531531531533) rotate(0 20 57)"><path d="M40.35 84 C40.26 91.53, 40.17 99.05, 40 114 M40.35 84 C40.27 90.76, 40.19 97.52, 40 114" stroke="#000000" stroke-width="1" fill="none"></path></g></g><g stroke-linecap="round"><g transform="translate(216.12162162162213 455.6531531531533) rotate(0 26 47)"><path d="M0 0 C8.67 15.67, 43.33 78.33, 52 94 M0 0 C8.67 15.67, 43.33 78.33, 52 94" stroke="#000000" stroke-width="1" fill="none"></path></g><g transform="translate(216.12162162162213 455.6531531531533) rotate(0 26 47)"><path d="M29.38 74.3 C36.38 80.4, 43.38 86.5, 52 94 M29.38 74.3 C36.41 80.42, 43.44 86.54, 52 94" stroke="#000000" stroke-width="1" fill="none"></path></g><g transform="translate(216.12162162162213 455.6531531531533) rotate(0 26 47)"><path d="M47.33 64.37 C48.78 73.54, 50.22 82.71, 52 94 M47.33 64.37 C48.78 73.57, 50.23 82.78, 52 94" stroke="#000000" stroke-width="1" fill="none"></path></g></g><g stroke-linecap="round"><g transform="translate(235.12162162162213 452.6531531531533) rotate(0 56.5 44)"><path d="M0 0 C18.83 14.67, 94.17 73.33, 113 88 M0 0 C18.83 14.67, 94.17 73.33, 113 88" stroke="#000000" stroke-width="1" fill="none"></path></g><g transform="translate(235.12162162162213 452.6531531531533) rotate(0 56.5 44)"><path d="M84.45 78.77 C94.04 81.87, 103.62 84.97, 113 88 M84.45 78.77 C95.47 82.33, 106.48 85.89, 113 88" stroke="#000000" stroke-width="1" fill="none"></path></g><g transform="translate(235.12162162162213 452.6531531531533) rotate(0 56.5 44)"><path d="M97.06 62.58 C102.41 71.12, 107.76 79.65, 113 88 M97.06 62.58 C103.21 72.39, 109.36 82.19, 113 88" stroke="#000000" stroke-width="1" fill="none"></path></g></g><g transform="translate(613.277777777778 296.22222222222206) rotate(0 14 14.5)"><text x="14" y="22" font-family="Helvetica, Segoe UI Emoji" font-size="28px" fill="#000000" text-anchor="middle" style="white-space: pre;" direction="ltr">(()</text></g><g transform="translate(813.277777777778 296.22222222222206) rotate(0 14 14.5)"><text x="14" y="22" font-family="Helvetica, Segoe UI Emoji" font-size="28px" fill="#000000" text-anchor="middle" style="white-space: pre;" direction="ltr">(((</text></g><g transform="translate(553.277777777778 416.22222222222206) rotate(0 18.5 14.5)"><text x="18.5" y="22" font-family="Helvetica, Segoe UI Emoji" font-size="28px" fill="#000000" text-anchor="middle" style="white-space: pre;" direction="ltr">(())</text></g><g transform="translate(681.277777777778 416.22222222222206) rotate(0 18.5 14.5)"><text x="18.5" y="22" font-family="Helvetica, Segoe UI Emoji" font-size="28px" fill="#000000" text-anchor="middle" style="white-space: pre;" direction="ltr">(()(</text></g><g transform="translate(873.277777777778 416.22222222222206) rotate(0 18.5 14.5)"><text x="18.5" y="22" font-family="Helvetica, Segoe UI Emoji" font-size="28px" fill="#000000" text-anchor="middle" style="white-space: pre;" direction="ltr">((()</text></g><g transform="translate(953.277777777778 416.22222222222206) rotate(0 18.5 14.5)"><text x="18.5" y="22" font-family="Helvetica, Segoe UI Emoji" font-size="28px" fill="#000000" text-anchor="middle" style="white-space: pre;" direction="ltr">((((</text></g><g transform="translate(453.27777777777806 556.2222222222221) rotate(0 23.5 14.5)"><text x="23.5" y="22" font-family="Helvetica, Segoe UI Emoji" font-size="28px" fill="#000000" text-anchor="middle" style="white-space: pre;" direction="ltr">(()))</text></g><g transform="translate(557.277777777778 555.2222222222221) rotate(0 23.5 14.5)"><text x="23.5" y="22" font-family="Helvetica, Segoe UI Emoji" font-size="28px" fill="#000000" text-anchor="middle" style="white-space: pre;" direction="ltr">(())(</text></g><g transform="translate(513.277777777778 719.2222222222221) rotate(0 28 14.5)"><text x="28" y="22" font-family="Helvetica, Segoe UI Emoji" font-size="28px" fill="#000000" text-anchor="middle" style="white-space: pre;" direction="ltr">(())()</text></g><g transform="translate(591.277777777778 716.2222222222221) rotate(0 28 14.5)"><text x="28" y="22" font-family="Helvetica, Segoe UI Emoji" font-size="28px" fill="#000000" text-anchor="middle" style="white-space: pre;" direction="ltr">(())((</text></g><g stroke-linecap="round"><g transform="translate(614.5386473429955 765.3961352657002) rotate(0 7.173913043478251 8.260869565217376)"><path d="M0 0 C2.39 2.75, 11.96 13.77, 14.35 16.52 M0 0 C2.39 2.75, 11.96 13.77, 14.35 16.52" stroke="#c92a2a" stroke-width="1" fill="none"></path></g></g><g stroke-linecap="round"><g transform="translate(613.6690821256041 781.9178743961352) rotate(0 7.608695652173878 -8.695652173913004)"><path d="M0 0 C2.54 -2.9, 12.68 -14.49, 15.22 -17.39 M0 0 C2.54 -2.9, 12.68 -14.49, 15.22 -17.39" stroke="#c92a2a" stroke-width="1" fill="none"></path></g></g><g stroke-linecap="round"><g transform="translate(468.03864734299555 603.3961352657002) rotate(0 7.173913043478251 8.260869565217376)"><path d="M0 0 C2.39 2.75, 11.96 13.77, 14.35 16.52 M0 0 C2.39 2.75, 11.96 13.77, 14.35 16.52" stroke="#c92a2a" stroke-width="1" fill="none"></path></g></g><g stroke-linecap="round"><g transform="translate(467.16908212560406 619.9178743961352) rotate(0 7.608695652173878 -8.695652173913004)"><path d="M0 0 C2.54 -2.9, 12.68 -14.49, 15.22 -17.39 M0 0 C2.54 -2.9, 12.68 -14.49, 15.22 -17.39" stroke="#c92a2a" stroke-width="1" fill="none"></path></g></g><g stroke-linecap="round"><g transform="translate(969.0386473429955 457.39613526569985) rotate(0 7.173913043478251 8.260869565217376)"><path d="M0 0 C2.39 2.75, 11.96 13.77, 14.35 16.52 M0 0 C2.39 2.75, 11.96 13.77, 14.35 16.52" stroke="#c92a2a" stroke-width="1" fill="none"></path></g></g><g stroke-linecap="round"><g transform="translate(968.1690821256041 473.91787439613483) rotate(0 7.608695652173878 -8.695652173913004)"><path d="M0 0 C2.54 -2.9, 12.68 -14.49, 15.22 -17.39 M0 0 C2.54 -2.9, 12.68 -14.49, 15.22 -17.39" stroke="#c92a2a" stroke-width="1" fill="none"></path></g></g><g stroke-linecap="round"><g transform="translate(698.5992069019455 211.8753753753753) rotate(0 -28.55862674597222 40.17603060331973)"><path d="M0 0 C-9.52 13.39, -47.6 66.96, -57.12 80.35 M0 0 C-9.52 13.39, -47.6 66.96, -57.12 80.35" stroke="#000000" stroke-width="1" fill="none"></path></g><g transform="translate(698.5992069019455 211.8753753753753) rotate(0 -28.55862674597222 40.17603060331973)"><path d="M-49.15 51.43 C-51.63 60.45, -54.12 69.46, -57.12 80.35 M-49.15 51.43 C-50.82 57.48, -52.48 63.54, -57.12 80.35" stroke="#000000" stroke-width="1" fill="none"></path></g><g transform="translate(698.5992069019455 211.8753753753753) rotate(0 -28.55862674597222 40.17603060331973)"><path d="M-32.42 63.32 C-40.12 68.63, -47.82 73.94, -57.12 80.35 M-32.42 63.32 C-37.59 66.88, -42.76 70.45, -57.12 80.35" stroke="#000000" stroke-width="1" fill="none"></path></g></g><g stroke-linecap="round"><g transform="translate(716.8318360883825 207.5656301975181) rotate(0 45.679953747460786 42.736735758022775)"><path d="M0 0 C15.23 14.25, 76.13 71.23, 91.36 85.47 M0 0 C15.23 14.25, 76.13 71.23, 91.36 85.47" stroke="#000000" stroke-width="1" fill="none"></path></g><g transform="translate(716.8318360883825 207.5656301975181) rotate(0 45.679953747460786 42.736735758022775)"><path d="M63.76 73.71 C69.78 76.27, 75.79 78.83, 91.36 85.47 M63.76 73.71 C69.47 76.14, 75.17 78.57, 91.36 85.47" stroke="#000000" stroke-width="1" fill="none"></path></g><g transform="translate(716.8318360883825 207.5656301975181) rotate(0 45.679953747460786 42.736735758022775)"><path d="M77.78 58.72 C80.74 64.55, 83.7 70.38, 91.36 85.47 M77.78 58.72 C80.59 64.25, 83.4 69.78, 91.36 85.47" stroke="#000000" stroke-width="1" fill="none"></path></g></g><g stroke-linecap="round"><g transform="translate(852.277777777778 322.03998091078506) rotate(0 57.077159322520174 42.5911206557185)"><path d="M0 0 C19.03 14.2, 95.13 70.99, 114.15 85.18 M0 0 C19.03 14.2, 95.13 70.99, 114.15 85.18" stroke="#000000" stroke-width="1" fill="none"></path></g><g transform="translate(852.277777777778 322.03998091078506) rotate(0 57.077159322520174 42.5911206557185)"><path d="M85.42 76.55 C95.09 79.45, 104.75 82.36, 114.15 85.18 M85.42 76.55 C91.78 78.46, 98.14 80.37, 114.15 85.18" stroke="#000000" stroke-width="1" fill="none"></path></g><g transform="translate(852.277777777778 322.03998091078506) rotate(0 57.077159322520174 42.5911206557185)"><path d="M97.7 60.1 C103.23 68.54, 108.77 76.97, 114.15 85.18 M97.7 60.1 C101.34 65.65, 104.98 71.2, 114.15 85.18" stroke="#000000" stroke-width="1" fill="none"></path></g></g><g stroke-linecap="round"><g transform="translate(832.2233421750832 329.22222222222206) rotate(0 20.863148610315648 41)"><path d="M0 0 C6.95 13.67, 34.77 68.33, 41.73 82 M0 0 C6.95 13.67, 34.77 68.33, 41.73 82" stroke="#000000" stroke-width="1" fill="none"></path></g><g transform="translate(832.2233421750832 329.22222222222206) rotate(0 20.863148610315648 41)"><path d="M19.8 61.53 C27.44 68.67, 35.09 75.81, 41.73 82 M19.8 61.53 C27.58 68.79, 35.36 76.06, 41.73 82" stroke="#000000" stroke-width="1" fill="none"></path></g><g transform="translate(832.2233421750832 329.22222222222206) rotate(0 20.863148610315648 41)"><path d="M38.09 52.22 C39.36 62.61, 40.63 72.99, 41.73 82 M38.09 52.22 C39.38 62.79, 40.67 73.35, 41.73 82" stroke="#000000" stroke-width="1" fill="none"></path></g></g><g stroke-linecap="round"><g transform="translate(626.6713128326821 331.22222222222206) rotate(0 -23.39878590245206 41.5)"><path d="M0 0 C-7.8 13.83, -39 69.17, -46.8 83 M0 0 C-7.8 13.83, -39 69.17, -46.8 83" stroke="#000000" stroke-width="1" fill="none"></path></g><g transform="translate(626.6713128326821 331.22222222222206) rotate(0 -23.39878590245206 41.5)"><path d="M-41.89 53.4 C-43.82 65.06, -45.75 76.71, -46.8 83 M-41.89 53.4 C-42.92 59.6, -43.94 65.79, -46.8 83" stroke="#000000" stroke-width="1" fill="none"></path></g><g transform="translate(626.6713128326821 331.22222222222206) rotate(0 -23.39878590245206 41.5)"><path d="M-24.01 63.48 C-32.98 71.17, -41.96 78.85, -46.8 83 M-24.01 63.48 C-28.78 67.57, -33.55 71.65, -46.8 83" stroke="#000000" stroke-width="1" fill="none"></path></g></g><g stroke-linecap="round"><g transform="translate(642.9904965372109 329.9197316103007) rotate(0 24.233947487615296 40.651245305960686)"><path d="M0 0 C8.08 13.55, 40.39 67.75, 48.47 81.3 M0 0 C8.08 13.55, 40.39 67.75, 48.47 81.3" stroke="#000000" stroke-width="1" fill="none"></path></g><g transform="translate(642.9904965372109 329.9197316103007) rotate(0 24.233947487615296 40.651245305960686)"><path d="M25.22 62.34 C32.59 68.35, 39.96 74.37, 48.47 81.3 M25.22 62.34 C34.33 69.77, 43.44 77.2, 48.47 81.3" stroke="#000000" stroke-width="1" fill="none"></path></g><g transform="translate(642.9904965372109 329.9197316103007) rotate(0 24.233947487615296 40.651245305960686)"><path d="M42.85 51.83 C44.63 61.18, 46.41 70.52, 48.47 81.3 M42.85 51.83 C45.05 63.38, 47.25 74.92, 48.47 81.3" stroke="#000000" stroke-width="1" fill="none"></path></g></g><g stroke-linecap="round"><g transform="translate(549.5013068425644 448.4991517721952) rotate(0 -34.97693330863217 51.36153522501343)"><path d="M0 0 C-11.66 17.12, -58.29 85.6, -69.95 102.72 M0 0 C-11.66 17.12, -58.29 85.6, -69.95 102.72" stroke="#000000" stroke-width="1" fill="none"></path></g><g transform="translate(549.5013068425644 448.4991517721952) rotate(0 -34.97693330863217 51.36153522501343)"><path d="M-62.57 73.65 C-64.14 79.83, -65.71 86.01, -69.95 102.72 M-62.57 73.65 C-64.55 81.46, -66.53 89.27, -69.95 102.72" stroke="#000000" stroke-width="1" fill="none"></path></g><g transform="translate(549.5013068425644 448.4991517721952) rotate(0 -34.97693330863217 51.36153522501343)"><path d="M-45.61 85.2 C-50.78 88.92, -55.96 92.65, -69.95 102.72 M-45.61 85.2 C-52.14 89.9, -58.68 94.61, -69.95 102.72" stroke="#000000" stroke-width="1" fill="none"></path></g></g><g stroke-linecap="round"><g transform="translate(579.8802766148233 450.22222222222206) rotate(0 4.978992618076404 49.5)"><path d="M0 0 C1.66 16.5, 8.3 82.5, 9.96 99 M0 0 C1.66 16.5, 8.3 82.5, 9.96 99" stroke="#000000" stroke-width="1" fill="none"></path></g><g transform="translate(579.8802766148233 450.22222222222206) rotate(0 4.978992618076404 49.5)"><path d="M-3.07 71.98 C1.1 80.62, 5.26 89.27, 9.96 99 M-3.07 71.98 C1.89 82.26, 6.84 92.54, 9.96 99" stroke="#000000" stroke-width="1" fill="none"></path></g><g transform="translate(579.8802766148233 450.22222222222206) rotate(0 4.978992618076404 49.5)"><path d="M17.35 69.92 C14.98 79.23, 12.62 88.53, 9.96 99 M17.35 69.92 C14.53 80.99, 11.72 92.05, 9.96 99" stroke="#000000" stroke-width="1" fill="none"></path></g></g><g stroke-linecap="round"><g transform="translate(580.6640817481241 592.2222222222221) rotate(0 -17.63991273655597 61.5)"><path d="M0 0 C-5.88 20.5, -29.4 102.5, -35.28 123 M0 0 C-5.88 20.5, -29.4 102.5, -35.28 123" stroke="#000000" stroke-width="1" fill="none"></path></g><g transform="translate(580.6640817481241 592.2222222222221) rotate(0 -17.63991273655597 61.5)"><path d="M-37.37 93.07 C-36.81 101.14, -36.24 109.21, -35.28 123 M-37.37 93.07 C-36.56 104.63, -35.76 116.18, -35.28 123" stroke="#000000" stroke-width="1" fill="none"></path></g><g transform="translate(580.6640817481241 592.2222222222221) rotate(0 -17.63991273655597 61.5)"><path d="M-17.64 98.73 C-22.4 105.27, -27.15 111.82, -35.28 123 M-17.64 98.73 C-24.45 108.1, -31.26 117.47, -35.28 123" stroke="#000000" stroke-width="1" fill="none"></path></g></g><g stroke-linecap="round"><g transform="translate(594.3145747367176 590.2222222222221) rotate(0 12.662374020720165 60.5)"><path d="M0 0 C4.22 20.17, 21.1 100.83, 25.32 121 M0 0 C4.22 20.17, 21.1 100.83, 25.32 121" stroke="#000000" stroke-width="1" fill="none"></path></g><g transform="translate(594.3145747367176 590.2222222222221) rotate(0 12.662374020720165 60.5)"><path d="M9.51 95.51 C15.06 104.45, 20.61 113.4, 25.32 121 M9.51 95.51 C14.13 102.97, 18.76 110.42, 25.32 121" stroke="#000000" stroke-width="1" fill="none"></path></g><g transform="translate(594.3145747367176 590.2222222222221) rotate(0 12.662374020720165 60.5)"><path d="M29.59 91.31 C28.1 101.72, 26.6 112.14, 25.32 121 M29.59 91.31 C28.34 99.99, 27.1 108.68, 25.32 121" stroke="#000000" stroke-width="1" fill="none"></path></g></g><g stroke-linecap="round"><g transform="translate(520.2845345345347 781.2447447447446) rotate(0 2.743243243243228 2.8108108108107217)"><path d="M0 0 C0.91 0.94, 4.57 4.68, 5.49 5.62 M0 0 C0.91 0.94, 4.57 4.68, 5.49 5.62" stroke="#2b8a3e" stroke-width="1" fill="none"></path></g></g><g stroke-linecap="round"><g transform="translate(526.2710210210214 787.722222222222) rotate(0 11 -10.5)"><path d="M0 0 C3.67 -3.5, 18.33 -17.5, 22 -21 M0 0 C3.67 -3.5, 18.33 -17.5, 22 -21" stroke="#2b8a3e" stroke-width="1" fill="none"></path></g></g><g transform="translate(676.777777777778 564.2222222222221) rotate(0 23.5 14.5)"><text x="23.5" y="22" font-family="Helvetica, Segoe UI Emoji" font-size="28px" fill="#000000" text-anchor="middle" style="white-space: pre;" direction="ltr">(()()</text></g><g transform="translate(753.277777777778 556.2222222222221) rotate(0 23.5 14.5)"><text x="23.5" y="22" font-family="Helvetica, Segoe UI Emoji" font-size="28px" fill="#000000" text-anchor="middle" style="white-space: pre;" direction="ltr">(()((</text></g><g stroke-linecap="round"><g transform="translate(780.0386473429955 598.3961352657002) rotate(0 7.173913043478251 8.260869565217376)"><path d="M0 0 C2.39 2.75, 11.96 13.77, 14.35 16.52 M0 0 C2.39 2.75, 11.96 13.77, 14.35 16.52" stroke="#c92a2a" stroke-width="1" fill="none"></path></g></g><g stroke-linecap="round"><g transform="translate(779.1690821256041 614.9178743961352) rotate(0 7.608695652173878 -8.695652173913004)"><path d="M0 0 C2.54 -2.9, 12.68 -14.49, 15.22 -17.39 M0 0 C2.54 -2.9, 12.68 -14.49, 15.22 -17.39" stroke="#c92a2a" stroke-width="1" fill="none"></path></g></g><g transform="translate(693.277777777778 716.2222222222221) rotate(0 28 14.5)"><text x="28" y="22" font-family="Helvetica, Segoe UI Emoji" font-size="28px" fill="#000000" text-anchor="middle" style="white-space: pre;" direction="ltr">(()())</text></g><g transform="translate(773.277777777778 716.2222222222221) rotate(0 28 14.5)"><text x="28" y="22" font-family="Helvetica, Segoe UI Emoji" font-size="28px" fill="#000000" text-anchor="middle" style="white-space: pre;" direction="ltr">(()()(</text></g><g stroke-linecap="round"><g transform="translate(704.6675830504307 452.22222222222206) rotate(0 -2.191115430102059 54)"><path d="M0 0 C-0.73 18, -3.65 90, -4.38 108 M0 0 C-0.73 18, -3.65 90, -4.38 108" stroke="#000000" stroke-width="1" fill="none"></path></g><g transform="translate(704.6675830504307 452.22222222222206) rotate(0 -2.191115430102059 54)"><path d="M-13.49 79.42 C-11.27 86.37, -9.06 93.33, -4.38 108 M-13.49 79.42 C-10.79 87.9, -8.08 96.38, -4.38 108" stroke="#000000" stroke-width="1" fill="none"></path></g><g transform="translate(704.6675830504307 452.22222222222206) rotate(0 -2.191115430102059 54)"><path d="M7.01 80.25 C4.24 87, 1.47 93.76, -4.38 108 M7.01 80.25 C3.63 88.49, 0.25 96.72, -4.38 108" stroke="#000000" stroke-width="1" fill="none"></path></g></g><g stroke-linecap="round"><g transform="translate(719.9835190744141 450.9746518505575) rotate(0 24.21784521686709 50.123785185832276)"><path d="M0 0 C8.07 16.71, 40.36 83.54, 48.44 100.25 M0 0 C8.07 16.71, 40.36 83.54, 48.44 100.25" stroke="#000000" stroke-width="1" fill="none"></path></g><g transform="translate(719.9835190744141 450.9746518505575) rotate(0 24.21784521686709 50.123785185832276)"><path d="M26.93 79.33 C35.24 87.41, 43.55 95.49, 48.44 100.25 M26.93 79.33 C34.69 86.88, 42.46 94.43, 48.44 100.25" stroke="#000000" stroke-width="1" fill="none"></path></g><g transform="translate(719.9835190744141 450.9746518505575) rotate(0 24.21784521686709 50.123785185832276)"><path d="M45.41 70.4 C46.58 81.93, 47.75 93.46, 48.44 100.25 M45.41 70.4 C46.5 81.17, 47.59 91.95, 48.44 100.25" stroke="#000000" stroke-width="1" fill="none"></path></g></g><g stroke-linecap="round"><g transform="translate(705.9898683249723 600.2222222222221) rotate(0 2.4721080841619596 55)"><path d="M0 0 C0.82 18.33, 4.12 91.67, 4.94 110 M0 0 C0.82 18.33, 4.12 91.67, 4.94 110" stroke="#000000" stroke-width="1" fill="none"></path></g><g transform="translate(705.9898683249723 600.2222222222221) rotate(0 2.4721080841619596 55)"><path d="M-6.57 82.3 C-3.93 88.65, -1.29 95, 4.94 110 M-6.57 82.3 C-3.93 88.65, -1.29 95.01, 4.94 110" stroke="#000000" stroke-width="1" fill="none"></path></g><g transform="translate(705.9898683249723 600.2222222222221) rotate(0 2.4721080841619596 55)"><path d="M13.93 81.38 C11.87 87.94, 9.81 94.5, 4.94 110 M13.93 81.38 C11.87 87.94, 9.81 94.51, 4.94 110" stroke="#000000" stroke-width="1" fill="none"></path></g></g><g stroke-linecap="round"><g transform="translate(714.8882178107449 601.2222222222221) rotate(0 35.350697782896646 54)"><path d="M0 0 C11.78 18, 58.92 90, 70.7 108 M0 0 C11.78 18, 58.92 90, 70.7 108" stroke="#000000" stroke-width="1" fill="none"></path></g><g transform="translate(714.8882178107449 601.2222222222221) rotate(0 35.350697782896646 54)"><path d="M46.68 90.03 C56.25 97.19, 65.83 104.35, 70.7 108 M46.68 90.03 C53.14 94.87, 59.6 99.7, 70.7 108" stroke="#000000" stroke-width="1" fill="none"></path></g><g transform="translate(714.8882178107449 601.2222222222221) rotate(0 35.350697782896646 54)"><path d="M63.85 78.79 C66.58 90.43, 69.31 102.07, 70.7 108 M63.85 78.79 C65.69 86.65, 67.53 94.5, 70.7 108" stroke="#000000" stroke-width="1" fill="none"></path></g></g><g stroke-linecap="round"><g transform="translate(796.5386473429955 764.3961352657002) rotate(0 7.173913043478251 8.260869565217376)"><path d="M0 0 C2.39 2.75, 11.96 13.77, 14.35 16.52 M0 0 C2.39 2.75, 11.96 13.77, 14.35 16.52" stroke="#c92a2a" stroke-width="1" fill="none"></path></g></g><g stroke-linecap="round"><g transform="translate(795.6690821256041 780.9178743961352) rotate(0 7.608695652173878 -8.695652173913004)"><path d="M0 0 C2.54 -2.9, 12.68 -14.49, 15.22 -17.39 M0 0 C2.54 -2.9, 12.68 -14.49, 15.22 -17.39" stroke="#c92a2a" stroke-width="1" fill="none"></path></g></g><g stroke-linecap="round"><g transform="translate(708.2845345345347 768.2447447447448) rotate(0 2.743243243243228 2.8108108108107217)"><path d="M0 0 C0.91 0.94, 4.57 4.68, 5.49 5.62 M0 0 C0.91 0.94, 4.57 4.68, 5.49 5.62" stroke="#2b8a3e" stroke-width="1" fill="none"></path></g></g><g stroke-linecap="round"><g transform="translate(714.2710210210214 774.7222222222222) rotate(0 11 -10.5)"><path d="M0 0 C3.67 -3.5, 18.33 -17.5, 22 -21 M0 0 C3.67 -3.5, 18.33 -17.5, 22 -21" stroke="#2b8a3e" stroke-width="1" fill="none"></path></g></g><g transform="translate(893.277777777778 556.2222222222221) rotate(0 23.5 14.5)"><text x="23.5" y="22" font-family="Helvetica, Segoe UI Emoji" font-size="28px" fill="#000000" text-anchor="middle" style="white-space: pre;" direction="ltr">((())</text></g><g transform="translate(975.277777777778 557.2222222222221) rotate(0 23.5 14.5)"><text x="23.5" y="22" font-family="Helvetica, Segoe UI Emoji" font-size="28px" fill="#000000" text-anchor="middle" style="white-space: pre;" direction="ltr">((()(</text></g><g stroke-linecap="round"><g transform="translate(997.8034991513255 602.6608565086818) rotate(0 7.173913043478251 8.260869565217376)"><path d="M0 0 C2.39 2.75, 11.96 13.77, 14.35 16.52 M0 0 C2.39 2.75, 11.96 13.77, 14.35 16.52" stroke="#c92a2a" stroke-width="1" fill="none"></path></g></g><g stroke-linecap="round"><g transform="translate(996.933933933934 619.1825956391168) rotate(0 7.608695652173878 -8.695652173913004)"><path d="M0 0 C2.54 -2.9, 12.68 -14.49, 15.22 -17.39 M0 0 C2.54 -2.9, 12.68 -14.49, 15.22 -17.39" stroke="#c92a2a" stroke-width="1" fill="none"></path></g></g><g transform="translate(875.1216216216221 711.6531531531533) rotate(0 28 14.5)"><text x="28" y="22" font-family="Helvetica, Segoe UI Emoji" font-size="28px" fill="#000000" text-anchor="middle" style="white-space: pre;" direction="ltr">((()))</text></g><g transform="translate(969.277777777778 713.2222222222221) rotate(0 28 14.5)"><text x="28" y="22" font-family="Helvetica, Segoe UI Emoji" font-size="28px" fill="#000000" text-anchor="middle" style="white-space: pre;" direction="ltr">((())(</text></g><g stroke-linecap="round"><g transform="translate(893.1216216216221 451.6531531531533) rotate(0 8 50.5)"><path d="M0 0 C2.67 16.83, 13.33 84.17, 16 101 M0 0 C2.67 16.83, 13.33 84.17, 16 101" stroke="#000000" stroke-width="1" fill="none"></path></g><g transform="translate(893.1216216216221 451.6531531531533) rotate(0 8 50.5)"><path d="M1.45 74.76 C5.88 82.74, 10.3 90.71, 16 101 M1.45 74.76 C6.45 83.78, 11.45 92.8, 16 101" stroke="#000000" stroke-width="1" fill="none"></path></g><g transform="translate(893.1216216216221 451.6531531531533) rotate(0 8 50.5)"><path d="M21.72 71.55 C19.98 80.5, 18.24 89.45, 16 101 M21.72 71.55 C19.76 81.67, 17.79 91.8, 16 101" stroke="#000000" stroke-width="1" fill="none"></path></g></g><g stroke-linecap="round"><g transform="translate(917.1216216216221 451.6531531531533) rotate(0 35 49.5)"><path d="M0 0 C11.67 16.5, 58.33 82.5, 70 99 M0 0 C11.67 16.5, 58.33 82.5, 70 99" stroke="#000000" stroke-width="1" fill="none"></path></g><g transform="translate(917.1216216216221 451.6531531531533) rotate(0 35 49.5)"><path d="M45.35 81.91 C53.6 87.63, 61.86 93.35, 70 99 M45.35 81.91 C53.11 87.29, 60.87 92.67, 70 99" stroke="#000000" stroke-width="1" fill="none"></path></g><g transform="translate(917.1216216216221 451.6531531531533) rotate(0 35 49.5)"><path d="M62.1 70.06 C64.75 79.75, 67.39 89.44, 70 99 M62.1 70.06 C64.59 79.17, 67.07 88.28, 70 99" stroke="#000000" stroke-width="1" fill="none"></path></g></g><g stroke-linecap="round"><g transform="translate(918.1216216216221 593.6531531531533) rotate(0 -8 58.5)"><path d="M0 0 C-2.67 19.5, -13.33 97.5, -16 117 M0 0 C-2.67 19.5, -13.33 97.5, -16 117" stroke="#000000" stroke-width="1" fill="none"></path></g><g transform="translate(918.1216216216221 593.6531531531533) rotate(0 -8 58.5)"><path d="M-22.35 87.68 C-20.98 93.98, -19.62 100.27, -16 117 M-22.35 87.68 C-20.03 98.4, -17.7 109.13, -16 117" stroke="#000000" stroke-width="1" fill="none"></path></g><g transform="translate(918.1216216216221 593.6531531531533) rotate(0 -8 58.5)"><path d="M-2.01 90.46 C-5.02 96.16, -8.02 101.86, -16 117 M-2.01 90.46 C-7.13 100.17, -12.25 109.87, -16 117" stroke="#000000" stroke-width="1" fill="none"></path></g></g><g stroke-linecap="round"><g transform="translate(940.1216216216221 593.6531531531533) rotate(0 23.5 56)"><path d="M0 0 C7.83 18.67, 39.17 93.33, 47 112 M0 0 C7.83 18.67, 39.17 93.33, 47 112" stroke="#000000" stroke-width="1" fill="none"></path></g><g transform="translate(940.1216216216221 593.6531531531533) rotate(0 23.5 56)"><path d="M26.63 89.98 C31.86 95.63, 37.09 101.28, 47 112 M26.63 89.98 C32.64 96.47, 38.65 102.97, 47 112" stroke="#000000" stroke-width="1" fill="none"></path></g><g transform="translate(940.1216216216221 593.6531531531533) rotate(0 23.5 56)"><path d="M45.55 82.03 C45.92 89.73, 46.3 97.42, 47 112 M45.55 82.03 C45.98 90.88, 46.41 99.72, 47 112" stroke="#000000" stroke-width="1" fill="none"></path></g></g><g stroke-linecap="round"><g transform="translate(991.3824911868396 750.8270661966313) rotate(0 7.173913043478251 8.260869565217376)"><path d="M0 0 C2.39 2.75, 11.96 13.77, 14.35 16.52 M0 0 C2.39 2.75, 11.96 13.77, 14.35 16.52" stroke="#c92a2a" stroke-width="1" fill="none"></path></g></g><g stroke-linecap="round"><g transform="translate(990.5129259694481 767.3488053270663) rotate(0 7.608695652173878 -8.695652173913004)"><path d="M0 0 C2.54 -2.9, 12.68 -14.49, 15.22 -17.39 M0 0 C2.54 -2.9, 12.68 -14.49, 15.22 -17.39" stroke="#c92a2a" stroke-width="1" fill="none"></path></g></g><g stroke-linecap="round"><g transform="translate(886.128378378379 762.6756756756761) rotate(0 2.743243243243228 2.8108108108107217)"><path d="M0 0 C0.91 0.94, 4.57 4.68, 5.49 5.62 M0 0 C0.91 0.94, 4.57 4.68, 5.49 5.62" stroke="#2b8a3e" stroke-width="1" fill="none"></path></g></g><g stroke-linecap="round"><g transform="translate(892.1148648648657 769.1531531531534) rotate(0 11 -10.5)"><path d="M0 0 C3.67 -3.5, 18.33 -17.5, 22 -21 M0 0 C3.67 -3.5, 18.33 -17.5, 22 -21" stroke="#2b8a3e" stroke-width="1" fill="none"></path></g></g></svg>